<svg width="31" height="36" viewBox="0 0 31 36" fill="none" xmlns="http://www.w3.org/2000/svg">
<path d="M23.6139 1.38707C23.6144 1.11286 23.5453 0.844684 23.4156 0.616534C23.2859 0.388383 23.1013 0.210535 22.8853 0.105535C22.6693 0.000534337 22.4316 -0.026889 22.2022 0.026741C21.9729 0.0803711 21.7623 0.212639 21.5972 0.406778L16.8742 5.94513C16.7646 6.07395 16.6778 6.22683 16.6186 6.39504C16.5594 6.56324 16.5291 6.74347 16.5294 6.92542V14.6597L14.7795 16.7089C14.4295 16.6 14.0628 16.5867 13.7077 16.6702C13.3525 16.7536 13.0185 16.9316 12.7313 17.1903C12.4441 17.449 12.2113 17.7815 12.051 18.1623C11.8906 18.5431 11.8069 18.962 11.8064 19.3867C11.8066 19.7808 11.8784 20.1703 12.0173 20.5292C12.1561 20.8881 12.3586 21.2082 12.6113 21.4679C12.8641 21.7277 13.1612 21.9212 13.4828 22.0355C13.8044 22.1499 14.1432 22.1824 14.4763 22.1309C14.8095 22.0794 15.1295 21.9452 15.4149 21.737C15.7003 21.5289 15.9446 21.2518 16.1313 20.9241C16.318 20.5965 16.443 20.2259 16.4978 19.8371C16.5526 19.4482 16.536 19.0502 16.4491 18.6695L18.199 16.6175H24.7947C24.9498 16.6179 25.1035 16.5823 25.247 16.5129C25.3904 16.4436 25.5208 16.3417 25.6307 16.2132L30.3537 10.6749C30.5192 10.4812 30.632 10.2343 30.6778 9.9654C30.7235 9.69648 30.7001 9.41771 30.6106 9.1644C30.521 8.91109 30.3694 8.69467 30.1748 8.54256C29.9802 8.39045 29.7515 8.30952 29.5177 8.31001H23.6139V1.38707ZM28.2047 17.1105C28.6111 20.5585 28.0836 24.0692 26.6969 27.1469C25.3102 30.2246 23.1342 32.7138 20.476 34.2632C17.8179 35.8126 14.8119 36.3439 11.8824 35.7822C8.9529 35.2204 6.24783 33.594 4.14905 31.1324C2.05027 28.6708 0.663778 25.4985 0.185298 22.0631C-0.293183 18.6278 0.160515 15.103 1.48235 11.9863C2.80418 8.86957 4.92738 6.31839 7.55224 4.69286C10.1771 3.06733 13.171 2.44955 16.1114 2.92673L15.207 3.98732C14.8777 4.373 14.6164 4.83099 14.4381 5.33513C14.2598 5.83926 14.168 6.37965 14.1679 6.92542C12.0661 6.92542 10.0116 7.65626 8.26399 9.02552C6.51642 10.3948 5.15436 12.341 4.35005 14.618C3.54573 16.895 3.33528 19.4005 3.74532 21.8178C4.15536 24.235 5.16746 26.4554 6.65364 28.1982C8.13982 29.9409 10.0333 31.1277 12.0947 31.6086C14.1561 32.0894 16.2928 31.8426 18.2346 30.8994C20.1764 29.9563 21.8361 28.3591 23.0038 26.3098C24.1714 24.2606 24.7947 21.8513 24.7947 19.3867C25.7338 19.3857 26.6342 18.9475 27.2979 18.1683L28.2047 17.1105ZM14.1679 9.6946C12.5332 9.6946 10.9352 10.263 9.57597 11.328C8.21675 12.393 7.15737 13.9067 6.53179 15.6777C5.90621 17.4487 5.74253 19.3975 6.06145 21.2776C6.38037 23.1576 7.16756 24.8846 8.32348 26.2401C9.4794 27.5955 10.9521 28.5186 12.5554 28.8926C14.1587 29.2666 15.8206 29.0746 17.3309 28.3411C18.8412 27.6075 20.132 26.3652 21.0402 24.7714C21.9484 23.1775 22.4332 21.3036 22.4332 19.3867H19.1767L18.8815 19.7329C18.8247 20.7967 18.5073 21.8187 17.9675 22.6763C17.4276 23.5339 16.6882 24.1905 15.8379 24.5675C14.9876 24.9444 14.0627 25.0256 13.174 24.8014C12.2854 24.5771 11.4708 24.0569 10.828 23.3032C10.1852 22.5495 9.74162 21.5943 9.55038 20.5522C9.35914 19.5101 9.4284 18.4255 9.74985 17.4284C10.0713 16.4314 10.6313 15.5643 11.3626 14.9312C12.0939 14.2982 12.9655 13.926 13.8727 13.8594L14.1679 13.5133V9.6946Z" fill="#DC3F00"/>
</svg>
