<svg width="116" height="105" viewBox="0 0 116 105" fill="none" xmlns="http://www.w3.org/2000/svg">
<path d="M23.5479 61.7158C23.5479 61.1004 20.6246 61.1387 16.8198 61.1387C13.015 61.1387 9.7821 62.0238 9.7821 62.6392C9.7821 63.2546 12.8561 63.7545 16.6661 63.7545C20.4762 63.7545 23.5479 62.3312 23.5479 61.7158Z" fill="black"/>
<path d="M14.6228 48.9088C14.6228 48.8699 14.5839 48.8316 14.5839 48.7928C14.3148 47.9465 14.8536 47.8311 15.5456 48.1391C16.1609 48.4082 16.8917 49.3699 17.5454 49.2156C18.507 48.9836 17.8934 47.8694 17.4688 47.4083C16.738 46.5238 16.0072 45.7159 15.3536 44.7931C14.9302 44.1777 14.5456 43.3315 15.0456 42.7927C15.6256 42.1779 16.6609 42.6767 17.238 43.2567C17.8145 43.872 18.5453 44.6028 19.3533 44.372C20.0452 43.3338 19.3533 41.9493 18.4688 41.1031C17.5843 40.2186 16.4689 39.4878 16.0838 38.3336C15.8147 37.5262 16.1609 36.4109 17.0072 36.2955C17.3166 36.3029 17.6169 36.4018 17.8701 36.5798C18.1233 36.7578 18.3181 37.0068 18.4299 37.2954C18.6343 37.883 18.9191 38.4395 19.2761 38.949C19.6607 39.413 20.4686 39.6798 20.9303 39.257C21.0478 39.1214 21.133 38.9611 21.1796 38.7879C21.2262 38.6147 21.233 38.4332 21.1994 38.257C21.0116 37.3199 20.526 36.4685 19.8149 35.8297C19.1105 35.184 18.5699 34.3798 18.2379 33.4836C17.9688 32.5609 18.3539 31.4072 19.2378 31.1375C19.68 31.0534 20.1376 31.1368 20.5216 31.3717C20.9055 31.6065 21.1883 31.9758 21.3148 32.4077C21.584 33.1768 21.6222 34.2922 22.4302 34.4459C23.1993 34.5996 23.6992 33.6768 23.7375 32.9077C23.8146 31.5232 23.1993 30.1771 23.0456 28.7926C22.8919 27.4081 23.353 25.7186 24.6609 25.3311C25.7762 24.9831 27.0452 25.7951 27.5069 26.8693C27.9043 27.9939 27.8769 29.225 27.4298 30.3308C27.0452 31.4461 26.507 32.5232 26.1607 33.6368C26.0999 33.7707 26.0716 33.9172 26.0783 34.0642C26.0849 34.2112 26.1263 34.3545 26.199 34.4824C26.4681 34.8304 27.0835 34.675 27.3915 34.3287C27.6995 33.9824 27.8555 33.5213 28.1989 33.2522C28.9297 32.6751 30.1222 33.2905 30.353 34.2133C30.4278 34.6759 30.374 35.1501 30.1975 35.5842C30.0211 36.0183 29.7288 36.3956 29.3525 36.6748C28.6096 37.2313 27.8111 37.7094 26.9698 38.1016C26.3933 38.409 25.3934 38.9473 25.1237 39.6015C24.5855 40.9088 26.9698 39.5626 27.239 39.3695C27.8932 38.8695 28.9314 38.485 29.4697 39.1375C29.5856 39.3122 29.6538 39.5142 29.6673 39.7234C29.6808 39.9327 29.6393 40.1418 29.5468 40.33C28.7006 42.5989 24.9317 42.5989 24.0855 44.8679C24.7392 45.1759 25.5082 44.7519 26.1236 44.3679C26.739 43.984 27.6241 43.7143 28.1623 44.2142C29.2005 45.2142 27.8932 46.4832 27.047 47.0603C25.8934 47.8294 24.0472 47.6403 23.2393 48.7528C23.1648 48.8256 23.1078 48.9145 23.0726 49.0126C23.0373 49.1107 23.0249 49.2155 23.036 49.3191C23.0472 49.4228 23.0817 49.5225 23.137 49.6109C23.1923 49.6992 23.2669 49.7739 23.3553 49.8292C23.6286 49.9699 23.9462 49.9976 24.2398 49.9064C25.1631 49.7527 26.2396 49.7138 26.2013 51.0217C26.2013 51.9062 25.4705 52.5216 24.8169 53.0216C23.3936 54.0986 20.3555 56.0985 18.4711 55.214C16.4718 54.0998 15.2382 50.9469 14.6228 48.9088Z" fill="#FF465A"/>
<path d="M18.5841 65.6001C17.2762 58.0601 19.4686 51.0241 21.5839 44.2166C23.2757 38.717 25.0453 33.0226 24.9682 27.1019H25.3916C25.5076 33.1015 23.6991 38.7936 22.0067 44.332C19.8937 51.1012 17.7379 58.0624 19.0452 65.5259L18.5841 65.6001Z" fill="white"/>
<path d="M7.27645 56.7545C7.23285 56.7066 7.18073 56.6673 7.12275 56.6385C6.23825 55.8311 6.81535 55.3312 7.77641 55.2157C8.66149 55.0997 10.1614 55.7157 10.8533 55.0997C11.8532 54.1764 10.3151 53.3302 9.50713 53.0228C8.08439 52.4845 6.66107 52.0611 5.23832 51.4457C4.35382 51.0258 3.31504 50.2933 3.5076 49.3316C3.7396 48.2163 5.2766 48.1009 6.39195 48.37C7.50729 48.6391 8.85347 49.0242 9.62255 48.178C9.69969 46.5244 7.96897 45.3702 6.35367 44.9474C4.73836 44.5246 2.93166 44.4474 1.69974 43.3704C0.815233 42.6013 0.468973 41.0631 1.39175 40.3706C2.08428 39.8706 3.04534 40.1386 3.77614 40.5626C4.4265 41.1029 5.13614 41.5675 5.8914 41.9476C6.69935 42.2168 7.77583 41.9859 8.00667 41.178C8.04604 40.9331 8.03207 40.6827 7.9657 40.4437C7.89933 40.2048 7.78213 39.983 7.62213 39.7935C6.85305 38.7553 5.584 38.2936 4.35324 37.9091C3.12248 37.5245 1.85344 37.1783 0.931234 36.2938C0.00903161 35.4093 -0.376089 33.794 0.467233 32.8323C1.27517 31.9478 2.8522 32.1015 3.77324 32.9095C4.61946 33.6403 5.4274 34.871 6.46561 34.5248C7.46553 34.1768 7.42725 32.7552 6.92961 31.8324C6.04452 30.1788 4.46808 29.0246 3.31388 27.5247C2.15968 26.0249 1.58316 23.7547 2.81392 22.3714C3.89098 21.1789 5.89082 21.2561 7.15987 22.2171C8.37908 23.267 9.19501 24.7083 9.46769 26.294C9.81569 27.8327 9.89109 29.448 10.2368 31.025C10.2519 31.2236 10.316 31.4154 10.4234 31.5831C10.5308 31.7508 10.6781 31.8893 10.8522 31.9861C11.4293 32.2181 12.0064 31.6016 12.1212 30.9862C12.1431 30.38 12.2074 29.7761 12.3138 29.1789C12.7778 28.0247 14.5827 27.9093 15.4672 28.7944C16.3517 29.6794 16.3906 31.1399 16.006 32.3324C15.5335 33.5007 14.9268 34.6101 14.1982 35.6384C13.7371 36.4075 12.9291 37.7154 13.0828 38.6764C13.352 40.5997 15.1981 37.3691 15.3907 36.9457C15.8135 35.9075 16.7751 34.7539 17.8133 35.1767C18.0701 35.3036 18.2899 35.4943 18.4518 35.7305C18.6137 35.9667 18.7122 36.2406 18.7379 36.5258C19.315 39.7564 14.9301 42.2945 15.4684 45.5251C16.43 45.4485 17.0071 44.4097 17.5071 43.5641C17.9711 42.7179 18.8144 41.7562 19.7378 41.9871C21.6222 42.4511 21.0068 44.8331 20.4303 46.0639C19.6224 47.7175 17.3563 48.7563 17.1243 50.6407C17.0905 50.7784 17.0874 50.9218 17.1154 51.0608C17.1434 51.1997 17.2017 51.3308 17.2862 51.4447C17.3707 51.5585 17.4793 51.6523 17.6042 51.7194C17.7291 51.7864 17.8672 51.8251 18.0088 51.8326C18.4151 51.7964 18.796 51.6196 19.0859 51.3326C20.0469 50.5253 21.2777 49.7562 22.1599 51.2561C22.7399 52.2943 22.3141 53.525 21.8907 54.525C20.968 56.7556 18.8167 61.1787 15.9683 61.4096C13.0457 61.5621 9.43057 58.6778 7.27645 56.7545Z" fill="#FDB849"/>
<path d="M17.2761 67.5617C16.9096 65.4729 16.3824 63.4155 15.6991 61.4078C15.2351 59.908 14.738 58.3692 14.3918 56.8311C13.9684 54.9466 13.4684 53.0234 12.9684 51.1772C12.4658 49.3418 12.0042 47.4954 11.584 45.6394L11.468 45.1011C9.89154 37.9862 8.27798 30.6011 4.39197 24.2942L4.85597 23.9868C8.7791 30.3708 10.3944 37.7937 11.9708 44.9857L12.0868 45.5245C12.5102 47.3701 13.0102 49.2551 13.4713 51.0241C13.9713 52.8702 14.4712 54.7941 14.8946 56.7162C15.2489 58.2512 15.6853 59.766 16.202 61.2542C16.9205 63.2802 17.461 65.3651 17.8173 67.4851L17.2761 67.5617Z" fill="white"/>
<path d="M20.3531 89.3685C21.7375 79.8304 22.1992 71.2922 23.5431 61.7158C19.2326 63.7628 14.2948 64.0526 9.77441 62.5238C11.3897 71.1002 12.8484 81.1383 14.466 89.7148C15.93 91.1764 18.8143 90.9838 20.3531 89.3685Z" fill="#643CFF"/>
<path d="M47.8133 40.5626C52.6959 31.3576 60.7412 24.2277 70.4664 20.487C76.5048 18.1792 83.2734 17.297 89.4655 19.1408C97.7729 21.6406 104.004 28.8327 107.465 36.7555C110.927 44.6783 112.042 53.4467 113.08 62.0621C113.926 68.8313 114.734 75.5616 115.58 82.3302C116.157 87.1379 116.618 92.5609 113.542 96.3297C111.657 98.6375 108.811 99.8677 105.965 100.753C98.6191 103.061 90.8505 103.445 83.1969 103.753C64.8131 104.445 46.4292 104.561 28.0451 104.101C22.3913 103.947 16.43 103.678 11.7378 100.524C9.69968 99.1392 7.93068 97.1777 7.35358 94.755C6.88958 92.7935 7.27644 90.7165 7.89182 88.7549C11.5075 77.4095 22.4301 70.4095 31.1603 62.2558C38.9479 54.9619 45.3007 46.2742 49.8903 36.6418" fill="#14D29B"/>
<path d="M115.542 82.3301C114.695 75.5615 113.887 68.8312 113.042 62.062C112.003 53.4467 110.888 44.7165 107.426 36.7554C105.157 31.5249 101.658 26.6019 97.1602 23.1787C98.1539 24.6784 99.0161 26.2611 99.7372 27.9092C101.891 32.9094 102.891 38.3324 103.545 43.6783C103.974 47.1874 104.193 50.7192 104.199 54.2546C104.199 56.8698 104.737 61.0986 102.545 63.0236C102.127 63.3905 101.638 63.6684 101.109 63.8403C100.58 64.0122 100.022 64.0745 99.468 64.0236C100.212 64.4924 100.759 65.2173 101.006 66.0617C103.622 72.5618 99.6989 80.292 96.5066 85.9459C93.7759 90.8301 89.8945 94.984 84.6995 97.2913C82.3534 98.3683 65.1615 104.06 66.2003 97.0221C66.1215 97.8529 65.9263 98.6684 65.6203 99.4448C65.0049 100.83 64.005 101.214 62.5823 101.33C54.2624 102.079 45.8887 102.002 37.5842 101.098C34.8536 100.79 32.0847 100.444 29.3923 99.9825C26.969 99.5979 24.2384 99.0591 22.2768 97.5209C21.3923 96.8284 20.7004 95.8674 20.9312 94.7132C21.1232 93.5978 22.4311 92.5979 21.5849 91.4443C20.8541 90.4444 19.2388 90.2135 18.1629 89.7907C17.1719 89.4072 16.1969 88.9837 15.2403 88.5211C13.2787 87.5983 10.9709 86.4447 9.70183 84.5985L9.66355 84.5597C8.95611 85.9045 8.36412 87.3069 7.89397 88.7519C7.27858 90.6752 6.89404 92.7539 7.35572 94.752C7.93283 97.1747 9.66355 99.1362 11.74 100.521C16.4322 103.675 22.3934 103.982 28.0473 104.098C46.431 104.559 64.8149 104.443 83.199 103.75C90.891 103.442 98.6601 103.058 105.968 100.75C108.813 99.8653 111.659 98.6346 113.544 96.3267C116.58 92.5608 116.157 87.1378 115.542 82.3301Z" fill="#008C6E"/>
<path d="M43.3907 78.7922C41.9493 79.4471 40.7609 80.5542 40.0058 81.9457C39.5058 82.9073 39.1984 83.9844 38.4293 84.7535C36.814 86.3305 33.9291 85.7917 32.2755 87.2916C34.8525 86.7533 37.506 87.5236 39.9315 88.5612C42.3571 89.5988 44.7003 90.8302 47.3155 91.2918C50.3895 91.8301 53.5465 91.1758 56.6999 90.9438C59.8534 90.7118 63.2383 91.0598 65.5844 93.1745C65.3153 90.3667 67.2763 87.8287 69.6224 86.2516C71.9685 84.6746 74.6991 83.6747 76.8533 81.8285C80.1593 79.0213 81.6603 74.6754 83.4299 70.714C85.1995 66.7526 87.2759 63.022 91.4293 61.5221C89.5066 61.3296 88.3524 60.7525 87.4273 59.176C86.5045 57.6373 86.3119 55.754 86.2348 53.9067C86.0745 50.7916 86.126 47.6692 86.3891 44.5611C86.8119 41.2917 87.9655 37.6382 85.5811 36.2149C81.3123 33.6768 66.8511 40.4072 64.505 45.0611C61.3898 51.1761 61.315 58.4452 58.4284 64.6373C55.4669 70.8694 49.6593 75.9462 43.3907 78.7922Z" fill="#008C6E"/>
<path d="M47.8132 40.5626C48.1612 39.8706 48.5829 39.217 48.9674 38.5244C49.2748 37.9091 49.5828 37.2554 49.8902 36.64L47.8132 40.5626Z" fill="#14D29B"/>
<path d="M58.4284 81.9074C58.8924 83.7153 59.39 85.5614 60.4665 87.0613C60.9671 87.715 61.6207 88.484 61.3516 89.292C61.1196 90.0994 60.1208 90.3685 59.3129 90.6765C57.4668 91.3684 56.044 92.83 54.5441 94.0985C53.0054 95.3681 51.1221 96.4446 49.1594 96.0983C49.0534 96.0867 48.9509 96.0535 48.8583 96.0006C48.7657 95.9477 48.685 95.8763 48.6212 95.7909C48.3892 95.4064 48.8532 95.0218 49.2012 94.791C51.1239 93.4448 51.9318 91.0604 53.3163 89.176C53.8693 88.5352 54.3348 87.8239 54.7007 87.0607C55.3544 85.4837 54.7779 83.7147 54.2367 82.0994C55.1602 81.8055 56.1158 81.6246 57.0828 81.5606C57.3189 81.5233 57.5601 81.5348 57.7916 81.5945C58.023 81.6542 58.2398 81.7607 58.4284 81.9074Z" fill="#9778FF"/>
<path d="M49.0058 81.5228C49.0829 83.369 49.1595 85.2928 49.8903 86.9841C50.2383 87.7532 50.6982 88.6377 50.2748 89.3685C49.8514 90.0993 48.8132 90.1376 47.9676 90.253C46.006 90.5227 44.3135 91.6763 42.5445 92.5608C40.7755 93.4453 38.6986 94.1378 36.8907 93.3682C36.7919 93.3384 36.7002 93.2889 36.621 93.2229C36.5417 93.1568 36.4767 93.0754 36.4296 92.9836C36.3136 92.5608 36.8141 92.2917 37.237 92.0991C39.3905 91.2146 40.6984 89.0222 42.4674 87.4841C43.1344 86.964 43.7409 86.3706 44.2753 85.7151C45.2369 84.3306 45.0826 82.4456 44.8907 80.792C45.8656 80.6958 46.8491 80.7349 47.8133 80.908C48.2749 80.9525 48.7018 81.1726 49.0058 81.5228Z" fill="#643CFF"/>
<path d="M63.2745 5.98753C63.0043 5.57092 62.8297 5.09967 62.7632 4.60759C62.6967 4.11552 62.74 3.61483 62.8899 3.14146C63.2742 2.11127 64.0283 1.26106 65.0052 0.756497C66.3547 0.0153706 67.9338 -0.190457 69.4283 0.179976C70.9218 0.560198 72.2228 1.47768 73.0823 2.75692C73.9668 4.10252 74.2365 6.02581 73.1983 7.29485C72.4292 8.25649 71.083 8.56389 69.8522 8.60275C67.813 8.60275 64.5052 7.83309 63.2745 5.98753Z" fill="black"/>
<path d="M62.8899 6.7178C64.2361 5.48762 66.2742 5.3722 68.0049 5.91044C69.0201 6.19287 69.9297 6.76798 70.6201 7.56402C70.962 7.95974 71.2035 8.43204 71.324 8.9409C71.4446 9.44976 71.4407 9.98019 71.3127 10.4872C71.1708 10.9888 70.8681 11.4298 70.4512 11.7425C70.0342 12.0552 69.526 12.2222 69.0048 12.2179C68.5501 12.1666 68.1077 12.0365 67.6975 11.8334C66.1882 11.1295 64.7238 10.333 63.3127 9.44844C62.1974 8.7565 61.7363 7.75774 62.8899 6.7178Z" fill="#D70A32"/>
<path d="M51.1983 19.1409C51.3478 17.4441 51.8616 15.7995 52.7044 14.3194C53.5473 12.8392 54.6995 11.5582 56.0825 10.5638C57.5012 9.56315 59.1127 8.86862 60.8143 8.52433C62.516 8.18004 64.2707 8.19354 65.9668 8.56395C66.9188 8.74788 67.8304 9.09961 68.6592 9.60273C69.9543 10.4905 71.0002 11.6954 71.6972 13.1025C72.5468 14.6653 73.1439 16.3527 73.4662 18.1021C73.8059 20.0091 73.8191 21.9599 73.5051 23.8713C73.4276 24.6048 73.1393 25.3001 72.6753 25.8734C72.2112 26.4467 71.5911 26.8734 70.8899 27.1019C69.2512 27.6914 67.4605 27.7049 65.8131 27.1402C62.1591 25.9483 58.2731 25.0632 54.7351 23.5634C53.6969 23.0994 52.5044 22.756 51.8125 21.8326C51.2616 21.0511 51.0409 20.084 51.1983 19.1409Z" fill="black"/>
<path d="M40.4677 27.8328C41.3911 25.7558 43.3521 24.5268 45.737 23.3714C47.8062 22.411 50.072 21.9501 52.3519 22.0258C52.4668 22.5913 52.6342 23.1449 52.8519 23.6794C48.7751 25.8718 43.9675 27.7945 40.5831 30.9874C38.9296 29.2944 37.352 27.6402 35.6218 26.0278C35.4734 24.7121 35.4606 23.3847 35.5835 22.0664C36.2521 22.1546 36.8949 22.3812 37.471 22.7317C38.0472 23.0823 38.5439 23.549 38.9296 24.1022C39.8324 25.1466 40.3721 26.4556 40.4677 27.8328Z" fill="#FDB849"/>
<path d="M73.5438 38.2936C71.3459 34.5319 70.0799 30.299 69.8515 25.9483C69.7355 26.6785 69.0441 27.0636 68.5053 27.6019C67.2732 28.6736 65.962 29.6508 64.5828 30.5251C65.6839 33.9409 66.4439 37.4574 66.8517 41.0231C68.075 41.3896 69.3842 41.3489 70.5823 40.9071C71.8508 40.4478 72.7741 39.3707 73.5438 38.2936Z" fill="black"/>
<path d="M83.0044 64.7927C83.4278 56.2545 83.6587 51.1395 84.0815 42.6367C84.1975 40.2906 84.3135 37.9062 83.6175 35.6767C82.9215 33.4471 81.2714 31.369 79.0024 30.7925C76.3101 30.1382 73.6183 31.7152 71.2304 33.1386C68.8426 34.5619 65.8845 35.8692 63.3847 34.6767C62.1923 34.0967 61.7694 32.5232 60.577 31.9461C59.4616 31.3661 58.0389 31.8301 57.1155 32.6769C56.2366 33.593 55.5789 34.6981 55.1928 35.9075C50.924 46.7147 51.6931 52.3685 54.4237 63.6756C56.1597 64.639 73.9663 65.4464 83.0044 64.7927Z" fill="#643CFF"/>
<path d="M66.9666 64.5236C66.8129 63.5619 66.0821 62.254 65.7358 61.3336C65.7741 61.4107 68.7356 61.4107 69.4281 61.4107C73.6587 61.5267 78.12 61.7587 81.8506 63.7951C82.4277 64.1025 83.1196 64.4105 83.0042 64.9487C82.8505 65.5641 82.158 65.6795 81.658 65.6795C79.2299 65.6849 76.8034 65.5565 74.3895 65.295C73.1587 65.179 71.9279 65.1024 70.6972 64.947C70.3126 64.9081 67.0049 64.7138 66.9666 64.5236Z" fill="black"/>
<path d="M47.2751 46.2936C46.3134 43.2196 42.4674 41.6396 39.3905 42.563C36.3136 43.4864 34.0835 46.333 33.1602 49.447C32.2368 52.5611 32.6219 56.4071 33.4681 59.5234C36.1988 69.8312 38.4678 75.7153 42.16 84.4055C44.3907 85.5979 48.8521 84.9054 50.9291 83.6364C50.3903 77.7905 49.7749 75.2907 49.1595 70.7522C48.5441 66.2137 48.9675 62.9448 47.3522 58.6372C48.5381 54.6042 48.5113 50.3114 47.2751 46.2936Z" fill="#D70A32"/>
<path d="M55.7379 29.8326C56.1937 30.8161 56.85 31.6936 57.6646 32.4088C58.4792 33.124 59.4342 33.6612 60.4684 33.986C62.6991 34.6013 64.2384 34.218 66.1994 33.1403C67.8225 32.1744 69.1634 30.7992 70.0881 29.1523C71.0127 27.5054 71.4886 25.6445 71.4681 23.7559C71.2759 20.4559 70.508 17.2149 69.1992 14.1795C68.4301 12.4099 66.3148 11.6791 64.507 11.2563C61.1609 10.4872 56.007 10.6026 54.3535 14.2178C53.0073 17.1021 53.0844 21.0618 53.7381 24.0633C54.1366 26.0691 54.8095 28.0104 55.7379 29.8326Z" fill="#F7846C"/>
<path d="M56.0059 14.9868C56.6244 14.5045 57.3608 14.1967 58.1385 14.0953C58.9163 13.9939 59.707 14.1027 60.4284 14.4103C60.9534 14.1857 61.5282 14.1031 62.0952 14.1705C62.6622 14.238 63.2015 14.4533 63.659 14.7949C64.4838 15.3472 65.1368 16.1201 65.5435 17.0255C66.0075 17.91 66.3131 18.91 66.8514 19.7562C67.07 20.1563 67.3663 20.5086 67.723 20.7926C68.0796 21.0766 68.4895 21.2864 68.9284 21.4098C69.7357 21.6023 71.0048 21.4098 71.5053 20.7561C71.4282 18.5637 70.6202 16.6021 69.6974 14.6023C69.2983 13.6222 68.5615 12.8174 67.6205 12.3333C66.6198 11.7744 65.5628 11.3232 64.467 10.9872C61.121 10.2181 55.6597 10.3718 53.969 14.0252C53.4024 15.582 53.078 17.2165 53.0073 18.8717C53.6581 17.3416 54.6906 16.004 56.0059 14.9868Z" fill="black"/>
<path d="M58.7746 23.1022C58.121 22.3714 56.9285 21.4098 55.9286 21.5252C54.9286 21.6406 54.0441 22.2172 53.6979 23.6788C53.6979 23.6788 54.4287 24.2559 56.1205 24.1022C57.084 24.0355 58.0067 23.6879 58.7746 23.1022ZM66.3895 22.3326C65.7358 21.6024 64.5433 20.6407 63.5434 20.7561C62.5435 20.8716 61.659 21.4481 61.3127 22.9097C61.3127 22.9097 62.0435 23.4868 63.736 23.3325C64.6993 23.2662 65.622 22.9186 66.3895 22.3326Z" fill="white"/>
<path d="M56.236 21.5252H55.9286C54.9286 21.6412 54.0441 22.2171 53.6979 23.6787C53.6979 23.6787 54.4287 24.2558 56.1205 24.1021C56.419 24.0726 56.7148 24.021 57.0056 23.9478C56.6517 23.1745 56.3932 22.361 56.236 21.5252ZM63.8897 20.7561H63.5051C62.5052 20.8721 61.6207 21.448 61.2744 22.9096C61.2744 22.9096 62.0052 23.4867 63.6977 23.3325C63.9964 23.3067 64.2923 23.2553 64.5822 23.1788C64.2407 22.407 64.0076 21.5917 63.8897 20.7561Z" fill="black"/>
<path d="M59.5822 44.6011C55.0915 43.9379 50.5101 44.2661 46.1598 45.5628C45.462 45.4065 44.7557 45.2903 44.0446 45.2148C43.5027 43.7744 42.6641 42.464 41.583 41.3688C41.351 41.1368 41.1985 40.946 40.9676 40.7534C39.3523 35.023 36.8525 29.5594 34.3145 24.177C34.5574 23.5394 34.9536 22.9715 35.4681 22.5234C36.7144 22.8899 37.8377 23.588 38.7183 24.5431C39.5988 25.4982 40.2035 26.6745 40.4677 27.9464C41.8769 26.0103 43.8732 24.5806 46.1598 23.8696C48.3905 23.1005 50.7749 22.9079 53.1599 22.6771C54.4705 23.2712 55.5318 24.3054 56.1596 25.6003C59.0057 31.3324 58.696 38.2936 59.5822 44.6011Z" fill="white"/>
<path d="M64.3514 28.0636C63.97 28.7225 63.4599 29.2979 62.8515 29.7555C62.5683 29.9779 62.2402 30.1362 61.8899 30.2195C61.5276 30.3282 61.1434 30.3414 60.7745 30.2577C60.5786 30.1874 60.3964 30.0834 60.2363 29.9503C59.9896 29.7551 59.7919 29.5048 59.6592 29.2195C61.1692 28.641 62.7454 28.2527 64.3514 28.0636Z" fill="#DD4040"/>
<path d="M60.2747 27.8327C59.5821 27.9093 58.7748 28.1018 58.4668 28.5247C58.2748 28.7567 58.5439 29.2555 58.9308 29.3709C59.1081 29.4045 59.2887 29.4176 59.469 29.4097C60.5567 29.2673 61.6261 29.0092 62.659 28.6401C63.1979 28.4864 64.428 28.1401 64.6206 27.871C63.4281 28.1401 61.6208 27.7173 60.2747 27.8327Z" fill="black"/>
<path d="M46.4289 49.6008C51.2366 46.4108 55.8133 45.024 61.393 46.4856C59.7005 38.1017 58.7395 33.1404 56.8933 25.4484C51.2777 23.1023 43.5475 26.3712 40.9323 29.2555C40.3523 29.1789 39.7015 29.0235 39.1244 28.9481C38.8397 28.1339 38.4097 27.3782 37.8554 26.7174C37.2925 25.9558 36.6331 25.2705 35.8938 24.6787C35.1468 24.0877 34.2305 23.7509 33.2786 23.7177C36.0736 29.5541 38.3008 35.6459 39.9294 41.9088C41.5065 42.4476 42.391 43.9475 43.0829 45.4468C43.6285 46.5576 44.0293 47.7338 44.2754 48.9465C44.9803 49.2052 45.6993 49.4236 46.4289 49.6008Z" fill="#FFD340"/>
<path d="M42.8519 37.3708C42.5806 36.4714 42.3497 35.5603 42.16 34.6402C42.0063 33.9477 41.812 33.2557 41.66 32.5632C41.352 32.5632 41.08 32.5249 40.7755 32.5249C40.9675 33.1786 41.1601 33.8323 41.3138 34.4476C41.5458 35.4093 41.8137 36.3321 42.0828 37.2937C42.3148 38.1782 42.5468 39.1016 42.8136 39.9861C43.0654 40.7132 43.2594 41.4591 43.3936 42.2168C43.6745 42.1849 43.9572 42.1721 44.2399 42.1785C44.0444 41.4477 43.0828 38.2171 42.8519 37.3708ZM53.7362 28.2555C52.0571 27.7892 50.292 27.7235 48.5829 28.0636C47.5548 28.2961 46.5774 28.7131 45.698 29.2943C45.0537 29.6509 44.459 30.0905 43.929 30.6016C45.0826 33.7168 45.8134 36.9863 46.6979 40.178C48.0883 39.0215 49.7367 38.2168 51.5038 37.8319C53.1427 37.4547 54.8228 37.2867 56.504 37.332C55.5441 34.3322 54.5824 31.2942 53.7362 28.2555Z" fill="#008C6E"/>
<path d="M43.6983 45.5245C43.16 42.6396 39.1603 28.9092 39.1215 28.9092C38.8365 28.0952 38.4065 27.3395 37.8524 26.6785C37.2894 25.9172 36.6301 25.2322 35.8909 24.6404C35.1441 24.0489 34.2277 23.7119 33.2756 23.6788C36.0717 29.5153 38.2998 35.6073 39.9294 41.8705C41.5064 42.4088 42.3909 43.9086 43.0829 45.4085C43.5981 46.4605 43.9856 47.5704 44.2371 48.7145C44.0445 47.6781 43.8908 46.601 43.6983 45.5245Z" fill="#FDB849"/>
<path d="M72.3125 33.2558C72.12 32.217 71.8897 31.2171 71.6971 30.1818C70.8766 31.2958 69.8278 32.222 68.6207 32.8984C67.4137 33.5748 66.0763 33.9859 64.6977 34.1043C64.6736 34.7998 64.6093 35.4933 64.5051 36.1813C64.6419 36.4534 64.8502 36.6832 65.1077 36.8459C65.3653 37.0085 65.6622 37.098 65.9667 37.1047C66.5841 37.0875 67.1894 36.9287 67.7357 36.6407C69.4665 35.9093 70.8509 34.486 72.3125 33.2558Z" fill="#FF465A"/>
<path d="M65.8879 20.1408C65.6324 19.9012 65.3287 19.7189 64.9972 19.6061C64.6656 19.4933 64.3138 19.4525 63.9652 19.4865C63.2755 19.5636 62.5821 19.6024 61.8882 19.6025C61.5378 19.6022 61.1944 19.5051 60.8957 19.3219C60.597 19.1387 60.3548 18.8765 60.1958 18.5643C60.9654 18.5261 61.7345 18.2569 62.5036 18.2163C63.212 18.1307 63.9303 18.1829 64.6189 18.37C64.9732 18.5193 65.2793 18.7638 65.5033 19.0763C65.7272 19.3888 65.8604 19.7573 65.8879 20.1408ZM57.9285 18.7198C57.8304 19.0219 57.66 19.2955 57.4321 19.5168C57.2041 19.7381 56.9256 19.9003 56.6206 19.9894C56.0754 20.1045 55.5229 20.182 54.9671 20.2214C54.6697 20.2556 54.3839 20.3564 54.1308 20.5162C53.8778 20.6761 53.664 20.8909 53.5054 21.1448C53.4668 20.8043 53.5216 20.4598 53.6639 20.1481C53.8063 19.8365 54.0308 19.5695 54.3134 19.3758C54.8307 19.0472 55.4313 18.8737 56.0441 18.8758C56.6206 18.8358 57.3903 19.0637 57.9285 18.7198Z" fill="black"/>
<path d="M60.0438 25.5637C60.192 24.3744 59.9775 23.1681 59.4284 22.1028C59.5294 22.7396 59.4537 23.3919 59.2095 23.9886C58.9654 24.5854 58.5623 25.1037 58.0439 25.4872C58.6894 25.7042 59.3837 25.7307 60.0438 25.5637Z" fill="#DD4040"/>
<path d="M72.2743 20.7172C71.8715 20.739 71.478 20.8462 71.1199 21.0318C70.7618 21.2174 70.4473 21.4771 70.1973 21.7937C69.9288 22.222 69.6972 22.6724 69.5048 23.1399C69.373 23.3732 69.1964 23.5783 68.9852 23.7433C68.774 23.9083 68.5324 24.0301 68.274 24.1015C67.3513 24.2175 66.813 23.2553 66.4285 22.4091C65.236 19.9093 64.736 17.0632 63.1225 14.7531C62.8396 14.2704 62.4077 13.8926 61.8917 13.6766C61.6338 13.5765 61.3487 13.5719 61.0877 13.6636C60.8267 13.7553 60.607 13.9372 60.4684 14.1765C60.5003 13.9917 60.5685 13.815 60.6691 13.6567C60.7698 13.4984 60.9008 13.3616 61.0546 13.2543C61.2084 13.1469 61.382 13.0711 61.5654 13.0313C61.7487 12.9915 61.938 12.9885 62.1226 13.0223C62.4924 13.1048 62.8424 13.2594 63.1526 13.4773C63.4627 13.6951 63.7268 13.972 63.9298 14.292C65.584 16.4838 65.7377 19.407 66.9685 21.8685C67.1604 22.2913 67.4325 22.945 67.9301 22.8684C68.6609 22.7524 69.0454 21.9839 69.5065 21.484C70.1973 20.7561 71.3127 20.6407 72.2743 20.7172Z" fill="black"/>
<path d="M71.4662 19.7174C71.6699 19.5294 71.9176 19.3956 72.1865 19.3284C72.4554 19.2612 72.7368 19.2627 73.005 19.3328C73.2833 19.4656 73.52 19.6719 73.6894 19.9296C73.8588 20.1872 73.9545 20.4863 73.966 20.7944C74.1586 22.1406 73.5815 23.4868 72.8507 24.6404C72.6079 25.0614 72.2959 25.4384 71.9279 25.7558C71.8167 25.8666 71.6847 25.9544 71.5395 26.0141C71.3943 26.0738 71.2387 26.1043 71.0817 26.1038C70.5817 26.0655 70.3126 25.5267 70.1589 25.065C69.7355 23.2942 70.0058 20.8716 71.4662 19.7174Z" fill="#F7846C"/>
<path d="M72.8898 23.1022C72.0818 23.4502 71.4665 24.3713 70.8511 24.9867C70.9785 24.0607 71.1844 23.1472 71.4665 22.256C71.7744 21.3715 72.0436 20.5636 72.8509 20.2562C72.4747 20.7128 72.2585 21.2802 72.2355 21.8715C72.159 22.3737 72.0818 23.2942 72.8898 23.1022Z" fill="#DD4040"/>
<path d="M51.8901 83.6381C50.4532 84.6855 48.7676 85.3395 47.0002 85.5351C45.2328 85.7307 43.445 85.4613 41.8138 84.7535C41.3343 83.7833 40.9231 82.781 40.583 81.7537C42.5063 82.5228 48.4675 82.3691 50.8902 80.7538C51.0828 81.7148 51.5827 82.5999 51.8901 83.6381Z" fill="white"/>
<path d="M80.8891 64.639C81.308 69.1383 80.4271 73.6633 78.351 77.6769C77.1968 80.023 75.6204 82.2919 73.3125 83.4455C71.5048 84.2601 69.5203 84.604 67.5439 84.4455C66.2908 84.4758 65.0493 84.1986 63.9281 83.6381C62.8516 83.0227 61.6974 82.0611 61.7363 80.792C61.9807 81.955 62.0327 83.1503 61.89 84.3301C59.0332 85.5625 55.8794 85.9366 52.8136 85.4065C52.3902 85.33 51.4674 82.8685 51.2748 82.4451C50.7366 81.3686 50.2749 80.2532 49.8138 79.1762C48.8522 76.9072 47.9677 74.5994 47.0826 72.2533C45.3136 67.5999 43.3126 62.946 42.3521 58.0618C41.3539 53.0239 41.1219 45.2548 47.0443 43.1378C50.2749 41.9842 53.7363 43.8303 56.0825 46.3684C60.8518 51.5223 63.3516 55.7528 67.005 62.5986C71.5818 62.8694 77.198 62.7546 80.8891 64.639Z" fill="#FF465A"/>
<path d="M72.8124 80.5611C71.3296 80.561 69.8721 80.1767 68.5819 79.4458C67.4856 78.7654 66.5214 77.8924 65.7358 76.8689C63.8897 74.5999 62.6618 71.9075 61.5819 69.1769C60.5437 66.6005 59.3129 64.7155 58.4284 62.1009C57.3131 58.8703 56.0057 55.4477 55.7749 50.8709C55.7531 51.5697 55.6099 52.2594 55.3515 52.909C54.967 53.5627 54.5824 53.6015 53.9288 52.8319C53.7362 52.5999 52.4672 50.1401 52.2363 49.7167C52.4683 50.4475 52.5843 51.2166 52.7363 51.9474C52.8969 52.4963 52.9621 53.0688 52.9288 53.6398C52.7746 54.6014 51.429 53.7558 50.8901 53.5627C51.5444 54.178 52.2746 55.0243 52.7363 55.5625C53.3173 56.2476 53.8567 56.9669 54.3516 57.7166C55.5305 59.6833 56.522 61.7565 57.3131 63.9087C58.2308 66.2456 59.052 68.6192 59.7746 71.0236C61.0436 75.3313 62.0436 82.6387 61.967 81.7536C62.4201 82.5849 63.1184 83.2562 63.9668 83.6763C65.0892 84.233 66.3295 84.5101 67.582 84.4843C69.5583 84.6389 71.5418 84.2951 73.3507 83.4843C75.0113 82.5744 76.3943 81.2315 77.3527 79.5983C75.9231 80.2328 74.3765 80.5607 72.8124 80.5611Z" fill="#D70A32"/>
<path d="M62.698 84.3689C62.0583 84.9198 61.2918 85.3031 60.4673 85.4843C57.852 86.2534 55.1214 86.8305 52.545 85.9483C51.8601 85.014 51.3037 83.992 50.8909 82.9096C55.006 82.8325 58.6217 82.3714 62.0443 80.7561C62.234 81.8303 62.466 83.369 62.698 84.3689Z" fill="white"/>
<path d="M83.2736 71.4076C79.8111 73.2699 76.6486 75.6426 73.8921 78.4459C71.1215 81.2643 69.1789 84.79 68.2765 88.6377C72.2379 88.6377 76.469 87.8303 79.3151 85.0997C81.1181 83.3214 82.407 81.089 83.0456 78.6385C83.7353 76.1769 83.2736 73.9074 83.2736 71.4076Z" fill="#14D29B"/>
<path d="M64.428 42.7168C63.2828 41.4011 62.3604 39.907 61.6973 38.2937C61.1446 36.7077 60.0919 35.344 58.6976 34.4077C58.261 34.0939 57.8495 33.7466 57.4668 33.3689C56.2749 32.4078 55.6207 29.7926 53.9288 30.4463C54.7362 31.7536 55.467 33.1386 56.2749 34.4483C55.5889 33.8524 54.958 33.1959 54.3899 32.4867C53.7751 31.833 53.1597 30.9103 52.1209 31.2948C52.3529 31.6793 52.5443 32.1793 52.7746 32.5638C52.7305 32.4916 52.6723 32.4291 52.6033 32.38C52.5344 32.331 52.4562 32.2964 52.3735 32.2784C52.2909 32.2604 52.2054 32.2593 52.1223 32.2753C52.0392 32.2913 51.9602 32.3239 51.8901 32.3713C52.2697 33.6658 52.9711 34.8431 53.9288 35.7933C53.2746 35.1779 52.2364 34.5242 51.4673 35.2133C52.9289 36.1367 53.89 37.4057 54.967 38.5982C55.747 39.5135 56.6386 40.3274 57.6211 41.0208C58.0962 41.3231 58.5983 41.5806 59.121 41.7899C59.6209 42.0596 60.1592 42.2539 60.6209 42.5596C60.9569 42.8386 61.2659 43.1487 61.5436 43.4858C62.0076 44.0241 62.4281 44.6012 62.8515 45.1783C63.6237 44.5448 64.1756 43.6831 64.428 42.7168Z" fill="#F7846C"/>
<path d="M54.4669 36.4475C54.3993 36.3498 54.3216 36.2596 54.2349 36.1783C54.0812 36.0246 54.0812 35.9864 53.9275 35.8303C53.5443 35.4174 53.0501 35.1238 52.5042 34.9847C52.7779 35.1813 53.0351 35.4 53.2733 35.6384C53.6416 36.0777 54.1009 36.432 54.6195 36.6766C54.5812 36.6383 54.5812 36.6 54.5429 36.5606C54.5422 36.5511 54.5379 36.5422 54.5309 36.5358C54.5239 36.5293 54.5147 36.5257 54.5052 36.5258C54.5014 36.4962 54.4879 36.4687 54.4669 36.4475ZM53.967 34.3711C53.503 33.7557 52.7362 32.5249 52.7362 32.5632C52.6385 32.4364 52.5043 32.3425 52.3517 32.2941C52.5336 32.753 52.739 33.2024 52.9671 33.6402C53.1267 33.9876 53.3338 34.311 53.5824 34.6013C53.8775 34.9007 54.2309 35.1364 54.6207 35.2938L54.8526 35.4098C54.5824 35.1013 54.275 34.7556 53.967 34.3711Z" fill="#DD4040"/>
<path d="M64.2362 41.2551C66.9285 43.5241 68.9284 45.3702 70.8511 48.8699C70.6974 44.9839 71.5819 41.1014 72.6207 37.332C73.1589 35.4093 73.7743 33.446 75.005 31.9095C76.2358 30.3731 78.2739 29.2555 80.1972 29.64C81.9279 29.988 83.2712 31.4479 83.9278 33.1014C84.4912 34.7841 84.7134 36.5623 84.5814 38.3319C84.3889 45.0599 82.889 51.6394 80.9274 58.0624C80.312 60.0234 79.5813 62.1392 77.8505 63.2545C76.1581 64.331 73.8891 64.1773 72.0813 63.2545C70.3202 62.2491 68.8496 60.8048 67.8124 59.0623C64.4276 53.9467 63.9665 49.3316 60.3884 44.024C61.5821 42.7933 62.582 41.7933 64.2362 41.2551Z" fill="#9778FF"/>
<path d="M62.0054 46.1782C62.7362 44.6783 64.2361 43.7167 65.736 43.1042C65.8842 43.0354 66.0399 42.9838 66.2 42.9505C65.5846 42.3705 64.9303 41.8352 64.2384 41.2581C62.5848 41.7963 61.5843 42.7962 60.4684 44.1041C61.0072 44.9121 61.4689 45.7194 61.8917 46.4885C61.9282 46.3702 61.9671 46.2936 62.0054 46.1782Z" fill="#FF465A"/>
<path d="M71.6589 50.5241C72.0069 51.3315 72.3125 52.1777 72.6205 53.0239C72.8896 53.7165 73.1587 54.4467 73.4279 55.1392C73.6115 54.9496 73.8051 54.7699 74.0079 54.601C73.2762 52.3002 72.2277 50.1125 70.8927 48.1009V48.8706C70.8126 48.7934 71.3897 49.9088 71.6589 50.5241Z" fill="black"/>
<path d="M36.3141 32.4078C36.5688 31.6362 36.8641 30.8787 37.1986 30.1382C37.3707 30.2499 37.5107 30.4044 37.6051 30.5865C37.6994 30.7686 37.7448 30.9721 37.7369 31.177C37.6627 31.7868 37.5464 32.3906 37.3889 32.9843C37.8529 32.4078 38.2734 31.8307 38.6968 31.2536C38.8931 31.3921 39.0376 31.5923 39.1073 31.8223C39.1769 32.0523 39.1678 32.299 39.0813 32.5232C39.168 32.5985 39.2345 32.6942 39.275 32.8016C39.3155 32.909 39.3287 33.0248 39.3133 33.1386C39.3085 33.3697 39.242 33.5954 39.1208 33.7923C38.9237 34.2132 38.6644 34.6021 38.3517 34.9459C38.8157 34.6385 39.1979 34.4076 39.6596 34.0997C39.7173 34.345 39.7043 34.6016 39.6222 34.8398C39.5401 35.0781 39.3922 35.2882 39.1956 35.4458C38.8876 35.7538 38.6156 36.0995 38.3111 36.4458C38.5431 37.1766 38.6956 37.7537 38.9265 38.5999C38.6573 38.7919 38.3876 38.6382 38.1185 38.4456C37.8632 38.2493 37.6533 38.0003 37.5031 37.7154C37.1174 37.2643 36.8999 36.6935 36.8878 36.1001C36.8878 35.9841 36.9266 35.8681 36.8878 35.7921C36.8495 35.6384 36.6958 35.523 36.6558 35.3693C36.6518 35.1873 36.6261 35.0064 36.5792 34.8305C36.5021 34.7145 36.3866 34.6385 36.3472 34.4825C36.3078 34.3264 36.3855 34.1345 36.3472 33.9442C36.2993 33.7964 36.2347 33.6545 36.1546 33.5214C36.091 33.1426 36.1467 32.7534 36.3141 32.4078Z" fill="#DD4040"/>
</svg>
