<svg width="27" height="30" viewBox="0 0 27 30" fill="none" xmlns="http://www.w3.org/2000/svg">
<path d="M20.2553 1.15589C20.2556 0.927383 20.1964 0.703903 20.0851 0.513778C19.9739 0.323653 19.8156 0.175446 19.6303 0.0879455C19.445 0.00044528 19.2411 -0.0224075 19.0444 0.0222842C18.8477 0.0669758 18.667 0.177199 18.5254 0.338981L14.4741 4.95427C14.3801 5.06162 14.3056 5.18902 14.2549 5.3292C14.2041 5.46937 14.1782 5.61956 14.1784 5.77118V12.2164L12.6774 13.9241C12.3771 13.8333 12.0626 13.8223 11.758 13.8918C11.4534 13.9614 11.1668 14.1096 10.9205 14.3252C10.6741 14.5408 10.4745 14.8179 10.3369 15.1353C10.1994 15.4526 10.1276 15.8017 10.1271 16.1556C10.1273 16.484 10.1889 16.8086 10.308 17.1077C10.4271 17.4068 10.6008 17.6735 10.8176 17.8899C11.0344 18.1064 11.2892 18.2677 11.5651 18.3629C11.841 18.4582 12.1315 18.4853 12.4173 18.4424C12.7031 18.3995 12.9776 18.2876 13.2224 18.1142C13.4672 17.9408 13.6767 17.7098 13.8369 17.4368C13.9971 17.1637 14.1043 16.8549 14.1513 16.5309C14.1983 16.2069 14.184 15.8752 14.1095 15.5579L15.6105 13.8479H21.2681C21.4012 13.8482 21.533 13.8186 21.656 13.7608C21.7791 13.703 21.8909 13.6181 21.9851 13.511L26.0364 8.89573C26.1784 8.73436 26.2751 8.52858 26.3144 8.30449C26.3536 8.0804 26.3335 7.84808 26.2567 7.637C26.1799 7.42591 26.0498 7.24555 25.8829 7.1188C25.7161 6.99204 25.5199 6.92459 25.3193 6.925H20.2553V1.15589ZM24.1931 14.2587C24.5416 17.1321 24.0892 20.0577 22.8997 22.6224C21.7102 25.1871 19.8437 27.2615 17.5637 28.5527C15.2836 29.8438 12.7052 30.2866 10.1923 29.8185C7.67951 29.3504 5.35919 27.995 3.55892 25.9437C1.75865 23.8923 0.569367 21.2487 0.158942 18.3859C-0.251482 15.5231 0.137684 12.5858 1.27151 9.98855C2.40533 7.3913 4.22654 5.26532 6.47806 3.91072C8.72958 2.55611 11.2977 2.04129 13.8199 2.43894L13.044 3.32277C12.7616 3.64416 12.5375 4.02582 12.3845 4.44594C12.2316 4.86605 12.1529 5.31638 12.1528 5.77118C10.3499 5.77118 8.58758 6.38021 7.08857 7.52127C5.58957 8.66232 4.42124 10.2841 3.73133 12.1816C3.04141 14.0791 2.8609 16.1671 3.21261 18.1815C3.56433 20.1959 4.43248 22.0462 5.70727 23.4985C6.98207 24.9508 8.60626 25.9398 10.3745 26.3405C12.1427 26.7411 13.9754 26.5355 15.641 25.7495C17.3066 24.9636 18.7303 23.6326 19.7319 21.9249C20.7335 20.2171 21.2681 18.2094 21.2681 16.1556C22.0736 16.1548 22.846 15.7896 23.4152 15.1402L24.1931 14.2587ZM12.1528 8.07883C10.7506 8.07883 9.37984 8.55252 8.21395 9.44C7.04806 10.3275 6.13936 11.5889 5.60276 13.0647C5.06616 14.5406 4.92576 16.1645 5.19931 17.7313C5.47287 19.298 6.1481 20.7372 7.13961 21.8667C8.13112 22.9963 9.39437 23.7655 10.7696 24.0772C12.1449 24.3888 13.5704 24.2289 14.8659 23.6175C16.1613 23.0062 17.2686 21.971 18.0476 20.6428C18.8266 19.3146 19.2424 17.753 19.2424 16.1556H16.4491L16.1959 16.444C16.1472 17.3306 15.875 18.1823 15.4119 18.8969C14.9488 19.6115 14.3146 20.1588 13.5852 20.4729C12.8559 20.787 12.0625 20.8547 11.3002 20.6678C10.538 20.4809 9.83925 20.0474 9.28791 19.4193C8.73657 18.7912 8.35605 17.9952 8.192 17.1268C8.02796 16.2584 8.08737 15.3546 8.3631 14.5237C8.63883 13.6928 9.11917 12.9702 9.74647 12.4427C10.3738 11.9151 11.1214 11.605 11.8996 11.5495L12.1528 11.2611V8.07883Z" fill="black" fill-opacity="0.5"/>
</svg>
