<svg width="30" height="30" viewBox="0 0 30 30" fill="none" xmlns="http://www.w3.org/2000/svg">
<path d="M17.677 30H12.0928C11.7429 30 11.4035 29.8832 11.1309 29.6687C10.8583 29.4543 10.6688 29.1552 10.5939 28.821L9.96954 25.995C9.1366 25.6381 8.34679 25.1919 7.61466 24.6645L4.79647 25.542C4.4629 25.646 4.10297 25.6353 3.77646 25.5117C3.44996 25.3881 3.17651 25.159 3.00155 24.8625L0.203304 20.136C0.0301707 19.8392 -0.0348192 19.4937 0.018967 19.1561C0.0727532 18.8185 0.242131 18.5087 0.49939 18.2775L2.68552 16.3275C2.5861 15.4442 2.5861 14.5528 2.68552 13.6695L0.49939 11.724C0.241766 11.4927 0.0721585 11.1826 0.0183635 10.8447C-0.0354315 10.5067 0.0297779 10.161 0.203304 9.864L2.99541 5.1345C3.17038 4.83797 3.44382 4.60888 3.77033 4.48528C4.09683 4.36168 4.45676 4.35099 4.79033 4.455L7.60852 5.3325C7.98285 5.0625 8.37251 4.8105 8.77445 4.5825C9.16259 4.3695 9.56146 4.176 9.96954 4.0035L10.5955 1.1805C10.67 0.846296 10.8591 0.547031 11.1314 0.332323C11.4037 0.117615 11.7429 0.000359949 12.0928 0H17.677C18.0268 0.000359949 18.366 0.117615 18.6383 0.332323C18.9107 0.547031 19.0998 0.846296 19.1743 1.1805L19.8063 4.005C20.6382 4.3639 21.4278 4.81001 22.1612 5.3355L24.9809 4.458C25.3143 4.35437 25.6739 4.36525 26.0001 4.48884C26.3262 4.61243 26.5994 4.84129 26.7743 5.1375L29.5664 9.867C29.9224 10.4775 29.7996 11.25 29.2704 11.7255L27.0842 13.6755C27.1836 14.5588 27.1836 15.4502 27.0842 16.3335L29.2704 18.2835C29.7996 18.7605 29.9224 19.5315 29.5664 20.142L26.7743 24.8715C26.5994 25.168 26.3259 25.3971 25.9994 25.5207C25.6729 25.6443 25.313 25.655 24.9794 25.551L22.1612 24.6735C21.4296 25.2005 20.6403 25.6463 19.8079 26.0025L19.1743 28.821C19.0995 29.1549 18.9102 29.4538 18.6379 29.6683C18.3656 29.8827 18.0266 29.9997 17.677 30ZM14.8787 9C13.2512 9 11.6904 9.63214 10.5396 10.7574C9.38876 11.8826 8.74224 13.4087 8.74224 15C8.74224 16.5913 9.38876 18.1174 10.5396 19.2426C11.6904 20.3679 13.2512 21 14.8787 21C16.5062 21 18.0671 20.3679 19.2179 19.2426C20.3687 18.1174 21.0152 16.5913 21.0152 15C21.0152 13.4087 20.3687 11.8826 19.2179 10.7574C18.0671 9.63214 16.5062 9 14.8787 9Z" fill="black" fill-opacity="0.5"/>
</svg>
