<svg width="30" height="30" viewBox="0 0 30 30" fill="none" xmlns="http://www.w3.org/2000/svg">
<path d="M9 14.7729C11.9016 14.7729 14.25 11.4688 14.25 7.38647C14.25 3.30413 11.9016 0 9 0C6.09844 0 3.75 3.30413 3.75 7.38647C3.75 11.4688 6.09844 14.7729 9 14.7729ZM12.6 16.8834H12.2109C11.2359 17.5429 10.1531 17.9386 9 17.9386C7.84688 17.9386 6.76875 17.5429 5.78906 16.8834H5.4C2.41875 16.8834 0 20.2864 0 24.4809V26.3802C0 28.1279 1.00781 29.5459 2.25 29.5459H15.75C16.9922 29.5459 18 28.1279 18 26.3802V24.4809C18 20.2864 15.5812 16.8834 12.6 16.8834ZM22.5 14.7729C24.9844 14.7729 27 11.9371 27 8.44168C27 4.9463 24.9844 2.11042 22.5 2.11042C20.0156 2.11042 18 4.9463 18 8.44168C18 11.9371 20.0156 14.7729 22.5 14.7729ZM24.75 16.8834H24.5719C23.9203 17.1999 23.2312 17.411 22.5 17.411C21.7688 17.411 21.0797 17.1999 20.4281 16.8834H20.25C19.2937 16.8834 18.4125 17.2725 17.6391 17.899C18.7828 19.6335 19.5 21.9352 19.5 24.4809V27.0134C19.5 27.1585 19.4766 27.297 19.4719 27.4355H27.75C28.9922 27.4355 30 26.0175 30 24.2698C30 20.1875 27.6516 16.8834 24.75 16.8834Z" fill="black" fill-opacity="0.5"/>
</svg>
