<svg width="36" height="30" viewBox="0 0 36 30" fill="none" xmlns="http://www.w3.org/2000/svg">
<path d="M17.5227 7.71443L6.00047 17.7948V28.6744C6.00047 28.956 6.10582 29.2262 6.29334 29.4254C6.48087 29.6246 6.7352 29.7365 7.0004 29.7365L14.0036 29.7172C14.2679 29.7158 14.521 29.6033 14.7074 29.4043C14.8939 29.2052 14.9985 28.9359 14.9985 28.6551V22.3015C14.9985 22.0198 15.1039 21.7497 15.2914 21.5505C15.4789 21.3513 15.7333 21.2394 15.9985 21.2394H19.9981C20.2633 21.2394 20.5177 21.3513 20.7052 21.5505C20.8927 21.7497 20.9981 22.0198 20.9981 22.3015V28.6505C20.9977 28.7902 21.0232 28.9287 21.0733 29.0579C21.1234 29.1872 21.1969 29.3047 21.2898 29.4036C21.3827 29.5026 21.4931 29.5812 21.6146 29.6347C21.7361 29.6883 21.8664 29.7159 21.998 29.7159L28.9987 29.7365C29.2639 29.7365 29.5182 29.6246 29.7058 29.4254C29.8933 29.2262 29.9986 28.956 29.9986 28.6744V17.7875L18.4789 7.71443C18.3435 7.59847 18.1747 7.53524 18.0008 7.53524C17.8269 7.53524 17.6581 7.59847 17.5227 7.71443ZM35.7232 14.5659L30.4986 9.99138V0.796602C30.4986 0.58533 30.4196 0.382711 30.2789 0.233319C30.1383 0.0839276 29.9475 0 29.7486 0H26.2489C26.05 0 25.8593 0.0839276 25.7186 0.233319C25.578 0.382711 25.499 0.58533 25.499 0.796602V5.61671L19.9038 0.726899C19.3668 0.257554 18.6931 0.000938228 17.9977 0.000938228C17.3023 0.000938228 16.6285 0.257554 16.0916 0.726899L0.272166 14.5659C0.196226 14.6325 0.133398 14.7144 0.087272 14.8069C0.0411455 14.8994 0.0126245 15.0006 0.00333859 15.1048C-0.00594732 15.209 0.00418384 15.3141 0.0331532 15.4141C0.0621226 15.5141 0.109362 15.6071 0.172173 15.6877L1.7658 17.7456C1.82844 17.8265 1.90549 17.8935 1.99253 17.9428C2.07958 17.992 2.17491 18.0225 2.27307 18.0326C2.37123 18.0426 2.47029 18.032 2.56459 18.0013C2.65888 17.9707 2.74656 17.9206 2.82259 17.8538L17.5227 4.9927C17.6581 4.87675 17.8269 4.81351 18.0008 4.81351C18.1747 4.81351 18.3435 4.87675 18.4789 4.9927L33.1796 17.8538C33.2555 17.9206 33.3431 17.9707 33.4372 18.0015C33.5314 18.0323 33.6304 18.043 33.7284 18.0332C33.8265 18.0233 33.9218 17.993 34.0089 17.944C34.0959 17.895 34.173 17.8283 34.2358 17.7476L35.8294 15.6897C35.8922 15.6086 35.9392 15.5152 35.9678 15.4147C35.9965 15.3143 36.0061 15.2088 35.9963 15.1043C35.9864 14.9999 35.9572 14.8986 35.9103 14.8062C35.8634 14.7137 35.7999 14.6321 35.7232 14.5659Z" fill="#41AC78"/>
</svg>
