<svg width="30" height="30" viewBox="0 0 30 30" fill="none" xmlns="http://www.w3.org/2000/svg">
<path d="M8.93064 15C11.8098 15 14.1402 11.6451 14.1402 7.5C14.1402 3.35491 11.8098 0 8.93064 0C6.05144 0 3.7211 3.35491 3.7211 7.5C3.7211 11.6451 6.05144 15 8.93064 15ZM12.5029 17.1429H12.1168C11.1493 17.8125 10.0749 18.2143 8.93064 18.2143C7.7864 18.2143 6.71658 17.8125 5.74445 17.1429H5.35838C2.40011 17.1429 0 20.5982 0 24.8571V26.7857C0 28.5603 1.00005 30 2.23266 30H15.6286C16.8612 30 17.8613 28.5603 17.8613 26.7857V24.8571C17.8613 20.5982 15.4612 17.1429 12.5029 17.1429ZM22.3266 15C24.7918 15 26.7919 12.1205 26.7919 8.57143C26.7919 5.02232 24.7918 2.14286 22.3266 2.14286C19.8614 2.14286 17.8613 5.02232 17.8613 8.57143C17.8613 12.1205 19.8614 15 22.3266 15ZM24.5593 17.1429H24.3825C23.736 17.4643 23.0522 17.6786 22.3266 17.6786C21.601 17.6786 20.9172 17.4643 20.2707 17.1429H20.0939C19.1451 17.1429 18.2706 17.5379 17.5031 18.1741C18.6381 19.9353 19.3497 22.2723 19.3497 24.8571V27.4286C19.3497 27.5759 19.3265 27.7165 19.3218 27.8571H27.5361C28.7688 27.8571 29.7688 26.4174 29.7688 24.6428C29.7688 20.4978 27.4385 17.1429 24.5593 17.1429Z" fill="#AB70DF"/>
</svg>
