<svg width="36" height="30" viewBox="0 0 36 30" fill="none" xmlns="http://www.w3.org/2000/svg">
<path d="M17.2762 7.78278L5.91606 17.9524V28.9284C5.91606 29.2126 6.01993 29.4852 6.20481 29.6861C6.3897 29.8871 6.64045 30 6.90192 30L13.8066 29.9806C14.0672 29.9791 14.3167 29.8656 14.5005 29.6648C14.6843 29.464 14.7875 29.1923 14.7875 28.909V22.4992C14.7875 22.215 14.8914 21.9424 15.0763 21.7415C15.2612 21.5405 15.5119 21.4276 15.7734 21.4276H19.7168C19.9783 21.4276 20.229 21.5405 20.4139 21.7415C20.5988 21.9424 20.7027 22.215 20.7027 22.4992V28.9043C20.7023 29.0453 20.7275 29.185 20.7768 29.3154C20.8262 29.4458 20.8987 29.5643 20.9903 29.6642C21.0819 29.7641 21.1907 29.8433 21.3105 29.8973C21.4304 29.9514 21.5588 29.9792 21.6885 29.9792L28.5908 30C28.8522 30 29.103 29.8871 29.2879 29.6861C29.4727 29.4852 29.5766 29.2126 29.5766 28.9284V17.9451L18.2189 7.78278C18.0854 7.6658 17.9191 7.60201 17.7476 7.60201C17.5761 7.60201 17.4097 7.6658 17.2762 7.78278ZM35.2206 14.6949L30.0695 10.0799V0.803661C30.0695 0.590517 29.9916 0.386103 29.853 0.235387C29.7143 0.0846713 29.5262 0 29.3301 0H25.8797C25.6836 0 25.4955 0.0846713 25.3568 0.235387C25.2182 0.386103 25.1403 0.590517 25.1403 0.803661V5.66648L19.6238 0.733341C19.0944 0.259836 18.4301 0.000946542 17.7445 0.000946542C17.0589 0.000946542 16.3946 0.259836 15.8652 0.733341L0.268337 14.6949C0.193466 14.7622 0.131522 14.8448 0.0860442 14.9381C0.0405667 15.0314 0.0124469 15.1335 0.00329162 15.2386C-0.00586366 15.3438 0.00412498 15.4498 0.0326868 15.5507C0.0612487 15.6516 0.107824 15.7454 0.169751 15.8268L1.74096 17.9029C1.80272 17.9845 1.87868 18.0521 1.9645 18.1018C2.05032 18.1514 2.14431 18.1822 2.24109 18.1924C2.33787 18.2025 2.43554 18.1918 2.52851 18.1609C2.62148 18.1299 2.70792 18.0793 2.78289 18.012L17.2762 5.03694C17.4097 4.91996 17.5761 4.85617 17.7476 4.85617C17.9191 4.85617 18.0854 4.91996 18.2189 5.03694L32.7129 18.012C32.7877 18.0794 32.874 18.13 32.9669 18.161C33.0597 18.1921 33.1573 18.2029 33.254 18.193C33.3507 18.183 33.4446 18.1525 33.5304 18.103C33.6163 18.0536 33.6923 17.9863 33.7542 17.9049L35.3254 15.8288C35.3873 15.747 35.4336 15.6527 35.4619 15.5513C35.4901 15.45 35.4996 15.3435 35.4899 15.2382C35.4801 15.1328 35.4513 15.0306 35.4051 14.9374C35.3589 14.8441 35.2962 14.7617 35.2206 14.6949Z" fill="black" fill-opacity="0.5"/>
</svg>
